ModelForces
version=1
nRows=4
nColumns=155
inDegrees=no

This file contains the forces exerted on a model during a simulation.

A force is a generalized force, meaning that it can be either a force (N) or a torque (Nm).

Units are S.I. units (second, meters, Newtons, ...)
Angles are in degrees.

endheader
time	glut_med1_r	glut_med2_r	glut_med3_r	glut_min1_r	glut_min2_r	glut_min3_r	semimem_r	semiten_r	bifemlh_r	bifemsh_r	sar_r	add_long_r	add_brev_r	add_mag1_r	add_mag2_r	add_mag3_r	tfl_r	pect_r	grac_r	glut_max1_r	glut_max2_r	glut_max3_r	iliacus_r	psoas_r	quad_fem_r	gem_r	peri_r	rect_fem_r	vas_med_r	vas_int_r	vas_lat_r	med_gas_r	lat_gas_r	soleus_r	tib_post_r	flex_dig_r	flex_hal_r	tib_ant_r	per_brev_r	per_long_r	per_tert_r	ext_dig_r	ext_hal_r	glut_med1_l	glut_med2_l	glut_med3_l	glut_min1_l	glut_min2_l	glut_min3_l	semimem_l	semiten_l	bifemlh_l	bifemsh_l	sar_l	add_long_l	add_brev_l	add_mag1_l	add_mag2_l	add_mag3_l	tfl_l	pect_l	grac_l	glut_max1_l	glut_max2_l	glut_max3_l	iliacus_l	psoas_l	quad_fem_l	gem_l	peri_l	rect_fem_l	vas_med_l	vas_int_l	vas_lat_l	med_gas_l	lat_gas_l	soleus_l	tib_post_l	flex_dig_l	flex_hal_l	tib_ant_l	per_brev_l	per_long_l	per_tert_l	ext_dig_l	ext_hal_l	ercspn_r	ercspn_l	intobl_r	intobl_l	extobl_r	extobl_l	femur_lat_meniscii_r.femur_lat_r.force.X	femur_lat_meniscii_r.femur_lat_r.force.Y	femur_lat_meniscii_r.femur_lat_r.force.Z	femur_lat_meniscii_r.femur_lat_r.torque.X	femur_lat_meniscii_r.femur_lat_r.torque.Y	femur_lat_meniscii_r.femur_lat_r.torque.Z	femur_lat_meniscii_r.meniscus_lat_r.force.X	femur_lat_meniscii_r.meniscus_lat_r.force.Y	femur_lat_meniscii_r.meniscus_lat_r.force.Z	femur_lat_meniscii_r.meniscus_lat_r.torque.X	femur_lat_meniscii_r.meniscus_lat_r.torque.Y	femur_lat_meniscii_r.meniscus_lat_r.torque.Z	femur_med_meniscii_r.femur_med_r.force.X	femur_med_meniscii_r.femur_med_r.force.Y	femur_med_meniscii_r.femur_med_r.force.Z	femur_med_meniscii_r.femur_med_r.torque.X	femur_med_meniscii_r.femur_med_r.torque.Y	femur_med_meniscii_r.femur_med_r.torque.Z	femur_med_meniscii_r.meniscus_med_r.force.X	femur_med_meniscii_r.meniscus_med_r.force.Y	femur_med_meniscii_r.meniscus_med_r.force.Z	femur_med_meniscii_r.meniscus_med_r.torque.X	femur_med_meniscii_r.meniscus_med_r.torque.Y	femur_med_meniscii_r.meniscus_med_r.torque.Z	femur_med_tibia_r.tibia_upper_r.force.X	femur_med_tibia_r.tibia_upper_r.force.Y	femur_med_tibia_r.tibia_upper_r.force.Z	femur_med_tibia_r.tibia_upper_r.torque.X	femur_med_tibia_r.tibia_upper_r.torque.Y	femur_med_tibia_r.tibia_upper_r.torque.Z	femur_med_tibia_r.femur_med_r.force.X	femur_med_tibia_r.femur_med_r.force.Y	femur_med_tibia_r.femur_med_r.force.Z	femur_med_tibia_r.femur_med_r.torque.X	femur_med_tibia_r.femur_med_r.torque.Y	femur_med_tibia_r.femur_med_r.torque.Z	femur_lat_tibia_r.tibia_upper_r.force.X	femur_lat_tibia_r.tibia_upper_r.force.Y	femur_lat_tibia_r.tibia_upper_r.force.Z	femur_lat_tibia_r.tibia_upper_r.torque.X	femur_lat_tibia_r.tibia_upper_r.torque.Y	femur_lat_tibia_r.tibia_upper_r.torque.Z	femur_lat_tibia_r.femur_lat_r.force.X	femur_lat_tibia_r.femur_lat_r.force.Y	femur_lat_tibia_r.femur_lat_r.force.Z	femur_lat_tibia_r.femur_lat_r.torque.X	femur_lat_tibia_r.femur_lat_r.torque.Y	femur_lat_tibia_r.femur_lat_r.torque.Z	aACL_R	pACL_R	aPCL_R	pPCL_R	aMCL_R	mMCL_R	pMCL_R	aLCL_R	mLCL_R	pLCL_R	aPCL_L	pPCL_L	aMCL_L	aLCL_L
      0.16733645	     11.29710501	      8.24851759	      8.87043405	      3.81028428	      4.43188528	      4.78762332	      0.00000000	    167.39131921	    136.03693541	    293.24947073	    130.73651928	      8.20826204	      5.91448564	      3.89471711	      3.59610908	      6.05614170	      4.86760662	      3.21593238	    100.13954076	      5.32570133	      8.10153577	      6.08706476	     27.36822028	     18.32512214	      5.23826560	      3.62648168	      6.21072231	     56.31133341	     31.04426740	     33.16664482	     44.71890496	      0.00000000	      0.00000000	      0.00000000	      0.00000000	      0.00000000	      0.00000000	     34.54679787	      2.34582699	      3.01642435	      0.00000000	     44.08148796	     11.25993447	     11.29710501	      8.24851759	      8.87043405	      3.81028428	      4.43188528	      4.78762332	      0.00000000	      6.10798533	     12.06039273	     10.42595388	      2.17417403	      8.20826204	      5.91448564	      3.89471711	      3.59610908	      6.05614170	      5.37682939	      3.21593238	      2.24400261	      5.32570133	      8.10153577	      6.08706476	     27.36822028	     18.32512214	      5.23826560	      3.62648168	      6.21072231	     16.78248054	      0.00000000	      0.00000000	      0.00000000	     21.09737760	      9.95789325	     50.23547685	     50.68403504	      5.38516696	      4.81632478	     13.06874045	      6.98570925	     18.00413050	      2.83344121	      8.71270667	      2.73936390	     35.86411565	     35.86411565	     13.31371988	     13.31371988	     30.69267650	     30.69267650	    105.17458528	    166.79473042	     19.78543433	    -11.97520939	      2.55064275	     41.28882664	   -105.17458528	   -166.79473042	    -19.78543433	      4.58740005	     -3.13332639	      2.89510840	     24.32148999	     19.45133050	     10.47118741	     -3.77956059	     -0.54726332	      9.75680449	    -24.32148999	    -19.45133050	    -10.47118741	     -0.23845811	      0.28811959	      0.05725840	   -800.30174450	   -694.19512638	    226.95229578	    -15.91338745	     17.98768882	     -1.09872469	    800.30174450	    694.19512638	   -226.95229578	    104.75265346	    -14.45633247	    325.17418592	      0.00000000	      0.00000000	      0.00000000	      0.00000000	      0.00000000	      0.00000000	      0.00000000	      0.00000000	      0.00000000	      0.00000000	      0.00000000	      0.00000000	     -4.19403141	      0.00000000	    609.42966175	    392.26672233	      0.00000000	      0.00000000	      0.00000000	      0.00000000	      0.00000000	      0.00000000	      0.00000000	      0.00000000	      0.00000001	      0.00000000
      0.16765787	     11.28195336	      8.23759501	      8.85854688	      3.80544587	      4.42659266	      4.78086112	      0.00000000	    167.37142801	    136.14001367	    293.38437947	    130.70429351	      8.19726749	      5.90704516	      3.92069141	      3.59126006	      6.04735444	      4.85467716	      3.21181958	    100.09895800	      5.31862195	      8.09074196	      6.07882817	     27.34810228	     18.30218138	      5.23146897	      3.62316451	      6.20695847	     56.60275985	     31.03503063	     33.15876037	     44.70666498	      0.00000000	      0.00000000	      0.00000000	      0.00000000	      0.00000000	      0.00000000	     34.59270526	      2.33649116	      3.01774001	     30.81015807	     44.28614759	     11.30798708	     11.28195336	      8.23759501	      8.85854688	      3.80544587	      4.42659266	      4.78086112	      0.00000000	      6.09938083	     12.04349367	     10.41241088	      2.17142610	      8.19726749	      5.90704516	      3.92069141	      3.59126006	      6.04735444	      5.37141223	      3.21181958	      2.24111654	      5.31862195	      8.09074196	      6.07882817	     27.34810228	     18.30218138	      5.23146897	      3.62316451	      6.20695847	     16.75705448	      0.00000000	      0.00000000	      0.00000000	     21.08850460	      9.95261787	     50.17262658	     50.65153473	      5.37762730	      4.80932701	     13.04995712	      6.97508506	     17.98406876	      2.82990689	      8.70021526	      2.73574761	     35.81847203	     35.81847203	     13.29540738	     13.29540738	     30.67608183	     30.67608183	    105.55134477	    167.83768565	     20.05685508	    -12.11425265	      2.56023672	     41.42262480	   -105.55134477	   -167.83768565	    -20.05685508	      4.62300567	     -3.15094266	      2.94394743	     24.36709283	     19.12598031	     10.28511061	     -3.71247982	     -0.54746998	      9.77499549	    -24.36709283	    -19.12598031	    -10.28511061	     -0.23451392	      0.29145822	      0.05214614	   -803.26012392	   -693.97930519	    228.16359021	    -15.91013821	     18.07567266	     -1.04369238	    803.26012392	    693.97930519	   -228.16359021	    105.23214107	    -14.51420039	    326.33832448	      0.00000000	      0.00000000	      0.00000000	      0.00000000	      0.00000000	      0.00000000	      0.00000000	      0.00000000	      0.00000000	      0.00000000	      0.00000000	      0.00000000	     -4.16362022	      0.00000000	    612.67344532	    393.90117225	      0.00000000	      0.00000000	      0.00000000	      0.00000000	      0.00000000	      0.00000000	      0.00000000	      0.00000000	      0.00000001	      0.00000000
      0.16782890	     11.27390918	      8.23180244	      8.85224283	      3.80287984	      4.42378582	      4.77727481	      0.00000000	    167.36253830	    136.19685293	    293.45826777	    130.68910140	      8.19143680	      5.90309909	      3.93312301	      3.58868851	      6.04269429	      4.84774173	      3.20963840	    100.07904494	      5.31486760	      8.08501778	      6.07446016	     27.33743361	     18.29001590	      5.22786446	      3.62140545	      6.20494093	     56.75813816	     31.02939427	     33.15335627	     44.69874924	      0.00000000	      0.00000000	      0.00000000	      0.00000000	      0.00000000	      0.00000000	     34.61646329	      2.33190648	      3.01876144	     24.35416619	     44.39667817	     11.33347569	     11.27390918	      8.23180244	      8.85224283	      3.80287984	      4.42378582	      4.77727481	      0.00000000	      6.09481769	     12.03452089	     10.40522855	      2.16996874	      8.19143680	      5.90309909	      3.93312301	      3.58868851	      6.04269429	      5.36853921	      3.20963840	      2.23958594	      5.31486760	      8.08501778	      6.07446016	     27.33743361	     18.29001590	      5.22786446	      3.62140545	      6.20494093	     16.74356804	      0.00000000	      0.00000000	      0.00000000	     21.08373585	      9.94979056	     50.13920723	     50.63428521	      5.37360118	      4.80558381	     13.03998968	      6.96944792	     17.97341492	      2.82803263	      8.69363752	      2.73384864	     35.79426515	     35.79426515	     13.28569587	     13.28569587	     30.66728170	     30.66728170	    105.92027532	    168.01013161	     20.10511906	    -12.14078612	      2.56784911	     41.56769382	   -105.92027532	   -168.01013161	    -20.10511906	      4.63107991	     -3.16106947	      2.95316568	     24.49602926	     19.03974350	     10.17247109	     -3.66898562	     -0.55031080	      9.82660314	    -24.49602926	    -19.03974350	    -10.17247109	     -0.23480258	      0.29609735	      0.04980428	   -805.27175210	   -693.01678955	    227.62484631	    -15.86423845	     18.09084826	     -1.05228956	    805.27175210	    693.01678955	   -227.62484631	    104.98427326	    -14.53911035	    327.14700982	      0.00000000	      0.00000000	      0.00000000	      0.00000000	      0.00000000	      0.00000000	      0.00000000	      0.00000000	      0.00000000	      0.00000000	      0.00000000	      0.00000000	     -4.10740293	      0.00000000	    614.38009994	    394.73654200	      0.00000000	      0.00000000	      0.00000000	      0.00000000	      0.00000000	      0.00000000	      0.00000000	      0.00000000	      0.00000001	      0.00000000
      0.16811677	     11.26039723	      8.22208229	      8.84166446	      3.79857382	      4.41907581	      4.77125668	      0.00000000	    167.34833070	    136.29879090	    293.59982208	    130.66355006	      8.18165277	      5.89647719	      3.95207024	      3.58437339	      6.03487437	      4.83596245	      3.20597820	    100.04589272	      5.30856776	      8.07541253	      6.06713061	     27.31953196	     18.26960281	      5.22181589	      3.61845390	      6.20152199	     57.02139698	     31.01916691	     33.14454902	     44.68661475	      0.00000000	      0.00000000	      0.00000000	      0.00000000	      0.00000000	      0.00000000	     34.65654812	      2.32428048	      3.02054001	     24.93823301	     44.57946451	     11.37585205	     11.26039723	      8.22208229	      8.84166446	      3.79857382	      4.41907581	      4.77125668	      0.00000000	      6.08716070	     12.01944767	     10.39317621	      2.16752315	      8.18165277	      5.89647719	      3.95207024	      3.58437339	      6.03487437	      5.36371798	      3.20597820	      2.23701749	      5.30856776	      8.07541253	      6.06713061	     27.31953196	     18.26960281	      5.22181589	      3.61845390	      6.20152199	     16.72093377	      0.00000000	      0.00000000	      0.00000000	     21.07563499	      9.94499997	     50.08299168	     50.60531871	      5.36680172	      4.79925203	     13.02325454	      6.95998423	     17.95551487	      2.82488767	      8.68267290	      2.73069146	     35.75364395	     35.75364395	     13.26939983	     13.26939983	     30.65251555	     30.65251555	    106.87691439	    167.20599026	     20.15100870	    -12.14097041	      2.58567182	     41.95985031	   -106.87691439	   -167.20599026	    -20.15100870	      4.61212631	     -3.18291580	      2.92735170	     24.80755982	     18.99972921	     10.09553248	     -3.63788204	     -0.55954531	      9.95514719	    -24.80755982	    -18.99972921	    -10.09553248	     -0.23657625	      0.30583090	      0.04297436	   -808.92374581	   -690.12781606	    226.89066783	    -15.77371749	     18.12469476	     -1.11320447	    808.92374581	    690.12781606	   -226.89066783	    104.61852711	    -14.58621835	    328.63076127	      0.00000000	      0.00000000	      0.00000000	      0.00000000	      0.00000000	      0.00000000	      0.00000000	      0.00000000	      0.00000000	      0.00000000	      0.00000000	      0.00000000	     -4.06244664	      0.00000000	    617.25664226	    396.18423186	      0.00000000	      0.00000000	      0.00000000	      0.00000000	      0.00000000	      0.00000000	      0.00000000	      0.00000000	      0.00000001	      0.00000000
